<svg width="94" height="75" viewBox="0 0 94 75" fill="none" xmlns="http://www.w3.org/2000/svg">
<g clip-path="url(#clip0_137_122)">
<path d="M38.8927 0C40.6069 -5.32966e-07 42.1305 1.11987 42.6809 2.78434L64.8319 69.7705C65.7113 72.4301 63.7825 75.1888 61.0437 75.1888H45.6893C43.9627 75.1888 42.4309 74.0528 41.8904 72.3713L20.3547 5.38512C19.5017 2.73199 21.4291 5.42982e-06 24.1537 4.58268e-06L38.8927 0Z" fill="#CCD6F6"/>
<path d="M80.4413 41.696C82.102 41.696 83.5893 42.7476 84.18 44.3385L93.5673 69.6297C94.5633 72.314 92.63 75.1896 89.8286 75.1896H74.616C72.9287 75.1896 71.4227 74.1035 70.852 72.4753L61.9863 47.1844C61.0495 44.5121 62.9809 41.696 65.7505 41.696H80.4413Z" fill="#CCD6F6"/>
<path d="M68.5041 6.51636C70.2421 6.51635 71.7947 7.5892 72.3941 9.20337L81.7814 34.4944C82.7747 37.1712 80.7727 40.0097 77.8914 40.0097H62.9495C61.1845 40.0097 59.6131 38.9032 59.0346 37.2528L50.1688 11.9618C49.2347 9.29728 51.2341 6.51636 54.0838 6.51636H68.5041Z" fill="#CCD6F6"/>
<path d="M0.666748 58.1003H22.1488C23.2534 58.1003 24.1488 59.0184 24.1488 60.1509V73.1381C24.1488 74.2707 23.2534 75.1887 22.1488 75.1887H2.66675C1.56218 75.1887 0.666748 74.2707 0.666748 73.1381V58.1003Z" fill="#CCD6F6"/>
<path d="M8.88242 37.5017C9.18982 36.7309 9.92142 36.2273 10.7336 36.2273H18.8107C20.1162 36.2273 21.0717 37.4888 20.7484 38.7857L15.9337 58.1004H0.666748L8.88242 37.5017Z" fill="#CCD6F6"/>
</g>
<defs>
<clipPath id="clip0_137_122">
<rect width="94" height="75" fill="white"/>
</clipPath>
</defs>
</svg>
